# xmcd CD database file
#
# Track frame offsets:
#	150
#	10560
#	28039
#	52272
#	78608
#	88062
#	138173
#	188178
#	206675
#	251667
#	277574
#	317612
#
# Disc length: 4401 seconds
#
# Revision: 0
# Processed by: cddbd v1.5.1PL0 Copyright (c) Steve Scherf et al.
# Submitted via: CDex 1.51
#
DISCID=9c112f0c
DTITLE=kadokawa - されど罪人は竜と踊る
DYEAR=2004
DGENRE=Drama
TTITLE0=開幕合図−長命竜
TTITLE1=開幕−咒式士殺人者
TTITLE2=要人物登場−モルディーン
TTITLE3=重力咒式士登場−ニドヴォルク
TTITLE4=殺意の考察−攻性咒式士たち
TTITLE5=暗殺者登場−キュラソー
TTITLE6=前編幕引き−見舞い客
TTITLE7=後編幕開け−監視する者される者
TTITLE8=十二翼将登場−ラキ侯爵
TTITLE9=殺意の動機−背の君
TTITLE10=閉幕−黒幕
TTITLE11=日常−ジヴーニャ
EXTD=YEAR: 2004
EXTT0=
EXTT1=
EXTT2=
EXTT3=
EXTT4=
EXTT5=
EXTT6=
EXTT7=
EXTT8=
EXTT9=
EXTT10=
EXTT11=
PLAYORDER=
